<?xml version="1.0" encoding="UTF-8" standalone="no"?>
<!-- Created with Inkscape (http://www.inkscape.org/) -->

<svg
   width="128"
   height="128"
   viewBox="0 0 33.866665 33.866668"
   version="1.1"
   id="svg5"
   inkscape:version="1.1 (c4e8f9ed74, 2021-05-24)"
   sodipodi:docname="browser.svg"
   xmlns:inkscape="http://www.inkscape.org/namespaces/inkscape"
   xmlns:sodipodi="http://sodipodi.sourceforge.net/DTD/sodipodi-0.dtd"
   xmlns:xlink="http://www.w3.org/1999/xlink"
   xmlns="http://www.w3.org/2000/svg"
   xmlns:svg="http://www.w3.org/2000/svg">
  <sodipodi:namedview
     id="namedview7"
     pagecolor="#505050"
     bordercolor="#ffffff"
     borderopacity="1"
     inkscape:pageshadow="0"
     inkscape:pageopacity="0"
     inkscape:pagecheckerboard="1"
     inkscape:document-units="mm"
     showgrid="false"
     units="px"
     inkscape:zoom="2.9857056"
     inkscape:cx="63.804013"
     inkscape:cy="61.794438"
     inkscape:window-width="1366"
     inkscape:window-height="699"
     inkscape:window-x="1024"
     inkscape:window-y="32"
     inkscape:window-maximized="1"
     inkscape:current-layer="layer1" />
  <defs
     id="defs2">
    <inkscape:path-effect
       effect="bspline"
       id="path-effect19860"
       is_visible="true"
       lpeversion="1"
       weight="33.333333"
       steps="2"
       helper_size="0"
       apply_no_weight="true"
       apply_with_weight="true"
       only_selected="false" />
    <inkscape:path-effect
       effect="bspline"
       id="path-effect19854"
       is_visible="true"
       lpeversion="1"
       weight="33.333333"
       steps="2"
       helper_size="0"
       apply_no_weight="true"
       apply_with_weight="true"
       only_selected="false" />
    <inkscape:path-effect
       effect="bspline"
       id="path-effect19848"
       is_visible="true"
       lpeversion="1"
       weight="33.333333"
       steps="2"
       helper_size="0"
       apply_no_weight="true"
       apply_with_weight="true"
       only_selected="false" />
    <inkscape:path-effect
       effect="bspline"
       id="path-effect19842"
       is_visible="true"
       lpeversion="1"
       weight="33.333333"
       steps="2"
       helper_size="0"
       apply_no_weight="true"
       apply_with_weight="true"
       only_selected="false" />
    <inkscape:path-effect
       effect="bspline"
       id="path-effect19836"
       is_visible="true"
       lpeversion="1"
       weight="33.333333"
       steps="2"
       helper_size="0"
       apply_no_weight="true"
       apply_with_weight="true"
       only_selected="false" />
    <inkscape:path-effect
       effect="bspline"
       id="path-effect19830"
       is_visible="true"
       lpeversion="1"
       weight="33.333333"
       steps="2"
       helper_size="0"
       apply_no_weight="true"
       apply_with_weight="true"
       only_selected="false" />
    <inkscape:path-effect
       effect="bspline"
       id="path-effect19744"
       is_visible="true"
       lpeversion="1"
       weight="33.333333"
       steps="2"
       helper_size="0"
       apply_no_weight="true"
       apply_with_weight="true"
       only_selected="false" />
    <inkscape:path-effect
       effect="bspline"
       id="path-effect19738"
       is_visible="true"
       lpeversion="1"
       weight="33.333333"
       steps="2"
       helper_size="0"
       apply_no_weight="true"
       apply_with_weight="true"
       only_selected="false" />
    <inkscape:path-effect
       effect="bspline"
       id="path-effect19652"
       is_visible="true"
       lpeversion="1"
       weight="33.333333"
       steps="2"
       helper_size="0"
       apply_no_weight="true"
       apply_with_weight="true"
       only_selected="false" />
    <inkscape:path-effect
       effect="bspline"
       id="path-effect17452"
       is_visible="true"
       lpeversion="1"
       weight="33.333333"
       steps="2"
       helper_size="0"
       apply_no_weight="true"
       apply_with_weight="true"
       only_selected="false" />
    <circle
       id="SVGID_2_"
       cx="64"
       cy="64"
       r="60" />
    <circle
       id="circle3312"
       cx="64"
       cy="64"
       r="60" />
    <filter
       inkscape:collect="always"
       style="color-interpolation-filters:sRGB"
       id="filter34184"
       x="-0.040373475"
       y="-0.04034454"
       width="1.080747"
       height="1.0806891">
      <feGaussianBlur
         inkscape:collect="always"
         stdDeviation="2.0523183"
         id="feGaussianBlur34186" />
    </filter>
  </defs>
  <g
     inkscape:label="Lapis 1"
     inkscape:groupmode="layer"
     id="layer1">
    <g
       id="g34176"
       transform="matrix(0.95523729,0.19160097,-0.19160097,0.95523729,4.0024247,-2.4864611)">
      <circle
         style="fill:#0073ca;fill-opacity:1;stroke:#1e90ff;stroke-width:0.89704;stroke-miterlimit:4;stroke-dasharray:none;stroke-opacity:1"
         id="circle3286"
         r="16.913847"
         cy="16.933332"
         cx="16.933332" />
      <g
         id="g3296"
         style="fill:none;fill-opacity:1;stroke:none;stroke-opacity:0.996078"
         transform="matrix(0.28189745,0,0,0.28189745,-1.1081035,-1.1081035)">
        <defs
           id="defs3289">
          <circle
             id="circle28271"
             cx="64"
             cy="64"
             r="60" />
        </defs>
        <clipPath
           id="SVGID_3_">
          <use
             style="overflow:visible"
             xlink:href="#SVGID_2_"
             id="use3291"
             x="0"
             y="0"
             width="100%"
             height="100%" />
        </clipPath>
        <path
           d="m 124.99,63.27 -0.03,-1.38 h -27.7 c -0.15,-8.04 -1.11,-15.77 -2.87,-23 h 25.3 L 119,37.46 c -0.33,-0.69 -0.69,-1.36 -1.04,-2.03 L 117.68,34.9 H 93.31 C 87.84,16.23 77.48,4.19 66,3.1 V 2.94 L 64.61,2.91 C 64.2,2.9 63.79,2.9 63.38,2.91 L 62,2.94 V 3.16 C 50.76,4.57 40.61,16.6 35.26,34.9 H 10.33 l -0.28,0.53 C 9.69,36.1 9.34,36.78 9.01,37.46 L 8.32,38.9 h 25.86 c -1.76,7.24 -2.73,14.96 -2.87,23 H 3.04 l -0.03,1.38 c 0,0.2 -0.01,0.41 -0.01,0.62 0,0.21 0.01,0.42 0.01,0.62 L 3.04,65.9 H 31.3 c 0.13,8.03 1.08,15.76 2.82,23 H 8.32 l 0.69,1.43 c 0.33,0.69 0.68,1.36 1.04,2.03 l 0.28,0.53 H 35.2 c 5.39,18.6 15.38,30.52 26.81,31.95 0.31,0.04 0.62,0.07 0.92,0.09 0.45,0.03 0.9,0.06 1.35,0.06 0.17,0 0.34,-0.01 0.51,-0.02 l 0.25,-0.01 c 0.56,-0.02 1.11,-0.07 1.65,-0.14 C 78.06,123.32 88,111.4 93.37,92.89 h 24.3 l 0.28,-0.53 c 0.36,-0.67 0.71,-1.35 1.04,-2.03 l 0.69,-1.43 H 94.43 c 1.75,-7.25 2.7,-14.97 2.83,-23 h 27.7 l 0.03,-1.38 C 125,64.31 125,64.11 125,63.9 c 0,-0.21 -0.01,-0.42 -0.01,-0.63 z M 62,92.9 v 27.92 c -6.55,-1.05 -12.8,-6.61 -17.7,-15.8 -1.93,-3.62 -3.59,-7.7 -4.95,-12.12 z m 0,-27 v 23 H 38.25 c -1.82,-7.2 -2.81,-14.92 -2.94,-23 z m 0,-27 v 23 H 35.31 c 0.15,-8.08 1.15,-15.81 2.99,-23 z M 62,7.19 V 34.9 H 39.42 C 40.76,30.55 42.4,26.55 44.3,22.99 49.2,13.8 55.45,8.23 62,7.19 Z m 22.26,15.8 c 1.9,3.56 3.54,7.56 4.88,11.91 H 66 V 7.12 c 6.76,0.81 13.21,6.4 18.26,15.87 z M 66,88.9 v -23 h 27.26 c -0.13,8.07 -1.12,15.8 -2.94,23 z m 0,-27 v -23 h 24.26 c 1.83,7.19 2.84,14.92 2.99,23 z m 0,31 h 23.21 c -1.35,4.42 -3.01,8.5 -4.95,12.12 v 0 c -5.05,9.47 -11.5,15.05 -18.26,15.87 z"
           style="opacity:1;fill:#1e90ff;fill-opacity:1;stroke:none;stroke-opacity:0.996078"
           clip-path="url(#SVGID_3_)"
           id="path3294" />
        <path
           d="m 124.99,63.27 -0.03,-1.38 h -27.7 c -0.15,-8.04 -1.11,-15.77 -2.87,-23 h 25.3 L 119,37.46 c -0.33,-0.69 -0.69,-1.36 -1.04,-2.03 L 117.68,34.9 H 93.31 C 87.84,16.23 77.48,4.19 66,3.1 V 2.94 L 64.61,2.91 C 64.2,2.9 63.79,2.9 63.38,2.91 L 62,2.94 V 3.16 C 50.76,4.57 40.61,16.6 35.26,34.9 H 10.33 l -0.28,0.53 C 9.69,36.1 9.34,36.78 9.01,37.46 L 8.32,38.9 h 25.86 c -1.76,7.24 -2.73,14.96 -2.87,23 H 3.04 l -0.03,1.38 c 0,0.2 -0.01,0.41 -0.01,0.62 0,0.21 0.01,0.42 0.01,0.62 L 3.04,65.9 H 31.3 c 0.13,8.03 1.08,15.76 2.82,23 H 8.32 l 0.69,1.43 c 0.33,0.69 0.68,1.36 1.04,2.03 l 0.28,0.53 H 35.2 c 5.39,18.6 15.38,30.52 26.81,31.95 0.31,0.04 0.62,0.07 0.92,0.09 0.45,0.03 0.9,0.06 1.35,0.06 0.17,0 0.34,-0.01 0.51,-0.02 l 0.25,-0.01 c 0.56,-0.02 1.11,-0.07 1.65,-0.14 C 78.06,123.32 88,111.4 93.37,92.89 h 24.3 l 0.28,-0.53 c 0.36,-0.67 0.71,-1.35 1.04,-2.03 l 0.69,-1.43 H 94.43 c 1.75,-7.25 2.7,-14.97 2.83,-23 h 27.7 l 0.03,-1.38 C 125,64.31 125,64.11 125,63.9 c 0,-0.21 -0.01,-0.42 -0.01,-0.63 z M 62,92.9 v 27.92 c -6.55,-1.05 -12.8,-6.61 -17.7,-15.8 -1.93,-3.62 -3.59,-7.7 -4.95,-12.12 z m 0,-27 v 23 H 38.25 c -1.82,-7.2 -2.81,-14.92 -2.94,-23 z m 0,-27 v 23 H 35.31 c 0.15,-8.08 1.15,-15.81 2.99,-23 z M 62,7.19 V 34.9 H 39.42 C 40.76,30.55 42.4,26.55 44.3,22.99 49.2,13.8 55.45,8.23 62,7.19 Z m 22.26,15.8 c 1.9,3.56 3.54,7.56 4.88,11.91 H 66 V 7.12 c 6.76,0.81 13.21,6.4 18.26,15.87 z M 66,88.9 v -23 h 27.26 c -0.13,8.07 -1.12,15.8 -2.94,23 z m 0,-27 v -23 h 24.26 c 1.83,7.19 2.84,14.92 2.99,23 z m 0,31 h 23.21 c -1.35,4.42 -3.01,8.5 -4.95,12.12 v 0 c -5.05,9.47 -11.5,15.05 -18.26,15.87 z"
           style="opacity:1;fill:#1e93ff;fill-opacity:1;stroke:none;stroke-opacity:0.996078;filter:url(#filter34184)"
           clip-path="url(#SVGID_3_)"
           id="path34182" />
      </g>
      <g
         style="opacity:0.2;fill:none;fill-opacity:1;stroke:none;stroke-opacity:0.996078"
         id="g3300"
         transform="matrix(0.28189745,0,0,0.28189745,-1.1081035,-1.1081035)">
        <path
           d="M 64,121 C 32.57,121 7,95.43 7,64 7,32.57 32.57,7 64,7 M 64,4 C 30.86,4 4,30.86 4,64 4,97.14 30.86,124 64,124 97.14,124 124,97.14 124,64 124,30.86 97.14,4 64,4 Z"
           style="opacity:1;fill:none;fill-opacity:0.981244;stroke:none;stroke-width:8.7191;stroke-miterlimit:4;stroke-dasharray:none;stroke-opacity:0.996078"
           id="path3298"
           sodipodi:nodetypes="cscsssss" />
      </g>
    </g>
  </g>
</svg>
