<?xml version="1.0" encoding="UTF-8" standalone="no"?>
<!-- Created with Inkscape (http://www.inkscape.org/) -->

<svg
   width="128"
   height="128"
   viewBox="0 0 33.866665 33.866668"
   version="1.1"
   id="svg5"
   inkscape:version="1.1 (c4e8f9ed74, 2021-05-24)"
   sodipodi:docname="recycle-bin.svg"
   xmlns:inkscape="http://www.inkscape.org/namespaces/inkscape"
   xmlns:sodipodi="http://sodipodi.sourceforge.net/DTD/sodipodi-0.dtd"
   xmlns="http://www.w3.org/2000/svg"
   xmlns:svg="http://www.w3.org/2000/svg">
  <sodipodi:namedview
     id="namedview7"
     pagecolor="#505050"
     bordercolor="#ffffff"
     borderopacity="1"
     inkscape:pageshadow="0"
     inkscape:pageopacity="0"
     inkscape:pagecheckerboard="1"
     inkscape:document-units="mm"
     showgrid="false"
     units="px"
     inkscape:zoom="2.9857056"
     inkscape:cx="45.382907"
     inkscape:cy="56.43557"
     inkscape:window-width="1366"
     inkscape:window-height="699"
     inkscape:window-x="1024"
     inkscape:window-y="32"
     inkscape:window-maximized="1"
     inkscape:current-layer="layer1" />
  <defs
     id="defs2" />
  <g
     inkscape:label="Lapis 1"
     inkscape:groupmode="layer"
     id="layer1">
    <g
       id="g8505"
       transform="matrix(1.3931044,0,0,1.3931044,-6.6565678,-6.6565682)">
      <path
         id="rect4929"
         style="fill:#bfbfbf;fill-opacity:0.503076;stroke:#c0c0c0;stroke-width:1.04854;stroke-linecap:round;stroke-linejoin:round;paint-order:fill markers stroke"
         d="M 9.1733037,5.3959751 H 24.693362 c 1.117021,0 2.170012,0.9098916 2.016283,2.0162838 L 24.063812,26.454408 C 23.910083,27.5608 23.16455,28.470692 22.047529,28.470692 H 11.819137 c -1.117021,0 -1.8625545,-0.909892 -2.0162834,-2.016284 L 7.1570203,7.4122589 C 7.0032913,6.3058667 8.0562827,5.3959751 9.1733037,5.3959751 Z"
         sodipodi:nodetypes="sssssssss" />
      <g
         inkscape:label="Layer 1"
         id="layer1-3"
         transform="matrix(0.10954564,0,0,0.10954564,10.329932,10.529484)"
         style="opacity:0.753088;stroke:none">
        <path
           id="path836"
           style="fill:#00beff;fill-opacity:0.495998;stroke:none;stroke-width:1.98438;stroke-linecap:round;stroke-linejoin:round;stroke-miterlimit:4;stroke-dasharray:none;stroke-opacity:0.992849"
           inkscape:transform-center-x="10.57644"
           d="m 28.550519,105.14081 63.458639,0.12536 V 45.219616 Z"
           sodipodi:nodetypes="cccc" />
        <path
           id="path833"
           style="fill:#00b0f0;fill-opacity:1;stroke:none;stroke-width:1.98438;stroke-linecap:round;stroke-linejoin:round;stroke-miterlimit:4;stroke-dasharray:none;stroke-opacity:1"
           inkscape:transform-center-x="-10.57644"
           d="m 92.009308,105.14081 -63.458639,0.12536 V 45.219616 Z"
           sodipodi:nodetypes="cccc" />
        <path
           id="path855"
           style="fill:#00b0f0;fill-opacity:1;stroke:none;stroke-width:1.98438;stroke-linecap:round;stroke-linejoin:miter;stroke-miterlimit:4;stroke-dasharray:none;stroke-opacity:0.992849"
           d="m 73.560339,9.4215834 c -25.332104,25.3321036 0,0 -25.332104,25.3321036 -6.995267,-6.995267 -6.995267,-18.336836 0,-25.3321037 6.995267,-6.9952676 18.336837,-6.9952676 25.332104,10e-8 z"
           sodipodi:nodetypes="ccsc" />
        <path
           id="path3163"
           style="fill:#00b2f0;fill-opacity:0.495998;stroke:none;stroke-width:1.98438;stroke-linecap:round;stroke-linejoin:miter;stroke-miterlimit:4;stroke-dasharray:none;stroke-opacity:0.992849"
           d="m 48.261169,34.787275 c 25.332104,-25.3321063 0,0 25.332104,-25.3321063 6.995267,6.9952693 6.995267,18.3368383 0,25.3321063 -6.995267,6.995267 -18.336837,6.995267 -25.332104,0 z"
           sodipodi:nodetypes="ccsc" />
      </g>
    </g>
  </g>
</svg>
