<?xml version="1.0" encoding="UTF-8" standalone="no"?>
<!-- Created with Inkscape (http://www.inkscape.org/) -->

<svg
   width="128"
   height="128"
   viewBox="0 0 33.866665 33.866668"
   version="1.1"
   id="svg5"
   inkscape:version="1.1 (c4e8f9ed74, 2021-05-24)"
   sodipodi:docname="serviceplay.svg"
   xmlns:inkscape="http://www.inkscape.org/namespaces/inkscape"
   xmlns:sodipodi="http://sodipodi.sourceforge.net/DTD/sodipodi-0.dtd"
   xmlns="http://www.w3.org/2000/svg"
   xmlns:svg="http://www.w3.org/2000/svg">
  <sodipodi:namedview
     id="namedview7"
     pagecolor="#505050"
     bordercolor="#ffffff"
     borderopacity="1"
     inkscape:pageshadow="0"
     inkscape:pageopacity="0"
     inkscape:pagecheckerboard="1"
     inkscape:document-units="mm"
     showgrid="false"
     units="px"
     inkscape:zoom="1.4142136"
     inkscape:cx="25.455844"
     inkscape:cy="-23.688077"
     inkscape:window-width="1366"
     inkscape:window-height="699"
     inkscape:window-x="1024"
     inkscape:window-y="32"
     inkscape:window-maximized="1"
     inkscape:current-layer="layer1" />
  <defs
     id="defs2">
    <inkscape:path-effect
       effect="bspline"
       id="path-effect19860"
       is_visible="true"
       lpeversion="1"
       weight="33.333333"
       steps="2"
       helper_size="0"
       apply_no_weight="true"
       apply_with_weight="true"
       only_selected="false" />
    <inkscape:path-effect
       effect="bspline"
       id="path-effect19854"
       is_visible="true"
       lpeversion="1"
       weight="33.333333"
       steps="2"
       helper_size="0"
       apply_no_weight="true"
       apply_with_weight="true"
       only_selected="false" />
    <inkscape:path-effect
       effect="bspline"
       id="path-effect19848"
       is_visible="true"
       lpeversion="1"
       weight="33.333333"
       steps="2"
       helper_size="0"
       apply_no_weight="true"
       apply_with_weight="true"
       only_selected="false" />
    <inkscape:path-effect
       effect="bspline"
       id="path-effect19842"
       is_visible="true"
       lpeversion="1"
       weight="33.333333"
       steps="2"
       helper_size="0"
       apply_no_weight="true"
       apply_with_weight="true"
       only_selected="false" />
    <inkscape:path-effect
       effect="bspline"
       id="path-effect19836"
       is_visible="true"
       lpeversion="1"
       weight="33.333333"
       steps="2"
       helper_size="0"
       apply_no_weight="true"
       apply_with_weight="true"
       only_selected="false" />
    <inkscape:path-effect
       effect="bspline"
       id="path-effect19830"
       is_visible="true"
       lpeversion="1"
       weight="33.333333"
       steps="2"
       helper_size="0"
       apply_no_weight="true"
       apply_with_weight="true"
       only_selected="false" />
    <inkscape:path-effect
       effect="bspline"
       id="path-effect19744"
       is_visible="true"
       lpeversion="1"
       weight="33.333333"
       steps="2"
       helper_size="0"
       apply_no_weight="true"
       apply_with_weight="true"
       only_selected="false" />
    <inkscape:path-effect
       effect="bspline"
       id="path-effect19738"
       is_visible="true"
       lpeversion="1"
       weight="33.333333"
       steps="2"
       helper_size="0"
       apply_no_weight="true"
       apply_with_weight="true"
       only_selected="false" />
    <inkscape:path-effect
       effect="bspline"
       id="path-effect19652"
       is_visible="true"
       lpeversion="1"
       weight="33.333333"
       steps="2"
       helper_size="0"
       apply_no_weight="true"
       apply_with_weight="true"
       only_selected="false" />
    <inkscape:path-effect
       effect="bspline"
       id="path-effect17452"
       is_visible="true"
       lpeversion="1"
       weight="33.333333"
       steps="2"
       helper_size="0"
       apply_no_weight="true"
       apply_with_weight="true"
       only_selected="false" />
    <inkscape:path-effect
       effect="bspline"
       id="path-effect1450"
       is_visible="true"
       lpeversion="1"
       weight="33.333333"
       steps="2"
       helper_size="0"
       apply_no_weight="true"
       apply_with_weight="true"
       only_selected="false" />
    <clipPath
       id="clip0">
      <rect
         x="15"
         y="536"
         width="52"
         height="34"
         id="rect985" />
    </clipPath>
  </defs>
  <g
     inkscape:label="Lapis 1"
     inkscape:groupmode="layer"
     id="layer1">
    <g
       id="g1794"
       transform="matrix(-0.91018785,0,0,0.91018785,28.756101,-16.324442)">
      <circle
         style="fill:#ffffff;fill-opacity:1;stroke:none;stroke-width:7.34518;stroke-linecap:round;stroke-linejoin:round;paint-order:fill markers stroke"
         id="path1191"
         cx="6.0197792"
         cy="39.52359"
         r="6.5913868" />
      <circle
         style="fill:#ffffff;fill-opacity:1;stroke:none;stroke-width:9.21344;stroke-linecap:round;stroke-linejoin:round;paint-order:fill markers stroke"
         id="circle1682"
         cx="20.958891"
         cy="37.845333"
         r="8.2679005" />
      <rect
         style="fill:#ffffff;fill-opacity:1;stroke:none;stroke-width:1.6473;stroke-linecap:round;stroke-linejoin:round;paint-order:fill markers stroke"
         id="rect1708"
         width="15.51669"
         height="5.5142283"
         x="5.1383443"
         y="40.588081" />
      <circle
         style="fill:#ffffff;fill-opacity:1;stroke:none;stroke-width:8.62898;stroke-linecap:round;stroke-linejoin:round;paint-order:fill markers stroke"
         id="circle18992"
         cx="12.74862"
         cy="38.37154"
         r="7.7434382" />
    </g>
    <g
       id="g18830"
       transform="matrix(1.2067168,0,0,1.2067168,-10.018395,-4.011282)">
      <path
         id="path836"
         style="fill:#595959;fill-opacity:0.747999;stroke:#595959;stroke-width:0.448547;stroke-linecap:round;stroke-linejoin:round;stroke-miterlimit:4;stroke-dasharray:none;stroke-opacity:1"
         inkscape:transform-center-x="8.965085"
         d="m 14.390794,22.506754 5.246263,0.01037 v -4.964179 z"
         sodipodi:nodetypes="cccc"
         inkscape:transform-center-y="2.6838524e-06" />
      <path
         id="path833"
         style="fill:#595959;fill-opacity:1;stroke:#595959;stroke-width:0.448547;stroke-linecap:round;stroke-linejoin:round;stroke-miterlimit:4;stroke-dasharray:none;stroke-opacity:1"
         inkscape:transform-center-x="-8.9650851"
         d="m 19.63707,22.506754 -5.246263,0.01037 v -4.964179 z"
         sodipodi:nodetypes="cccc"
         inkscape:transform-center-y="2.6838524e-06" />
      <path
         id="path855"
         style="fill:#595959;fill-opacity:1;stroke:#595959;stroke-width:0.448547;stroke-linecap:round;stroke-linejoin:miter;stroke-miterlimit:4;stroke-dasharray:none;stroke-opacity:1"
         d="m 18.111853,14.593439 c -2.09426,2.09426 0,0 -2.09426,2.09426 -0.578313,-0.578314 -0.578313,-1.515946 0,-2.09426 0.578314,-0.578314 1.515946,-0.578314 2.09426,0 z"
         sodipodi:nodetypes="ccsc" />
      <path
         id="path3163"
         style="fill:#595959;fill-opacity:0.747999;stroke:#595959;stroke-width:0.448547;stroke-linecap:round;stroke-linejoin:miter;stroke-miterlimit:4;stroke-dasharray:none;stroke-opacity:1"
         d="m 16.020317,16.690475 c 2.094259,-2.094259 0,0 2.094259,-2.094259 0.578314,0.578314 0.578314,1.515946 0,2.094259 -0.578314,0.578314 -1.515946,0.578314 -2.094259,0 z"
         sodipodi:nodetypes="ccsc" />
    </g>
    <path
       sodipodi:type="star"
       style="fill:#595959;fill-opacity:1;stroke:#595959;stroke-width:6.844;stroke-linecap:round;stroke-linejoin:round;stroke-opacity:1;paint-order:fill markers stroke"
       id="path3244"
       inkscape:flatsided="true"
       sodipodi:sides="3"
       sodipodi:cx="57.725403"
       sodipodi:cy="114.85056"
       sodipodi:r1="23.511677"
       sodipodi:r2="11.755839"
       sodipodi:arg1="2.0943951"
       sodipodi:arg2="3.1415927"
       inkscape:rounded="0"
       inkscape:randomized="0"
       d="m 45.969564,135.21227 0,-40.723416 35.267516,20.361706 z"
       transform="matrix(0.19455185,0,0,0.18664539,9.6666116,-2.3372182)"
       inkscape:transform-center-x="-1.143559" />
    <path
       style="fill:#f3f3f3;fill-opacity:1;stroke-width:0.0861541"
       d="m 20.350022,20.972999 v -0.25511 l -0.753847,-0.02488 -0.753849,-0.02488 -0.02583,-0.495387 -0.02583,-0.49539 h 1.817837 1.817835 l -0.02583,0.49539 -0.02583,0.495387 -0.75385,0.02488 -0.753849,0.02488 v 0.25511 c 0,0.226014 -0.02948,0.255106 -0.258463,0.255106 -0.228989,0 -0.258462,-0.02909 -0.258462,-0.255106 z m 0.516925,-0.778744 c 0,-0.172314 -0.04307,-0.258462 -0.129244,-0.258462 -0.08615,0 -0.129244,0.08615 -0.129244,0.258462 0,0.172313 0.04308,0.258461 0.129244,0.258461 0.08615,0 0.129244,-0.08615 0.129244,-0.258461 z m 0.516926,0 c 0,-0.172314 -0.04308,-0.258462 -0.129244,-0.258462 -0.08615,0 -0.129245,0.08615 -0.129245,0.258462 0,0.172313 0.04308,0.258461 0.129245,0.258461 0.08615,0 0.129244,-0.08615 0.129244,-0.258461 z m 0.516925,0 c 0,-0.172314 -0.04308,-0.258462 -0.129244,-0.258462 -0.08615,0 -0.129244,0.08615 -0.129244,0.258462 0,0.172313 0.04308,0.258461 0.129244,0.258461 0.08615,0 0.129244,-0.08615 0.129244,-0.258461 z m -3.10155,-1.292313 v -0.516925 h 1.809237 1.809236 v 0.516925 0.516925 h -1.809236 -1.809237 z m 2.067699,0 c 0,-0.172314 -0.04307,-0.258462 -0.129244,-0.258462 -0.08615,0 -0.129244,0.08615 -0.129244,0.258462 0,0.172314 0.04308,0.258462 0.129244,0.258462 0.08615,0 0.129244,-0.08615 0.129244,-0.258462 z m 0.516926,0 c 0,-0.172314 -0.04308,-0.258462 -0.129244,-0.258462 -0.08615,0 -0.129245,0.08615 -0.129245,0.258462 0,0.172314 0.04308,0.258462 0.129245,0.258462 0.08615,0 0.129244,-0.08615 0.129244,-0.258462 z m 0.516925,0 c 0,-0.172314 -0.04308,-0.258462 -0.129244,-0.258462 -0.08615,0 -0.129244,0.08615 -0.129244,0.258462 0,0.172314 0.04308,0.258462 0.129244,0.258462 0.08615,0 0.129244,-0.08615 0.129244,-0.258462 z m -3.084312,-1.270774 0.02583,-0.495385 h 1.76616 1.766159 l 0.02583,0.495385 0.02583,0.495385 h -1.817832 -1.817836 z m 2.050461,-0.02155 c 0,-0.172314 -0.04307,-0.258464 -0.129244,-0.258464 -0.08615,0 -0.129244,0.08615 -0.129244,0.258464 0,0.172314 0.04308,0.258463 0.129244,0.258463 0.08615,0 0.129244,-0.08615 0.129244,-0.258463 z m 0.516926,0 c 0,-0.172314 -0.04308,-0.258464 -0.129244,-0.258464 -0.08615,0 -0.129245,0.08615 -0.129245,0.258464 0,0.172314 0.04308,0.258463 0.129245,0.258463 0.08615,0 0.129244,-0.08615 0.129244,-0.258463 z m 0.516925,0 c 0,-0.172314 -0.04308,-0.258464 -0.129244,-0.258464 -0.08615,0 -0.129244,0.08615 -0.129244,0.258464 0,0.172314 0.04308,0.258463 0.129244,0.258463 0.08615,0 0.129244,-0.08615 0.129244,-0.258463 z"
       id="path19006" />
    <path
       sodipodi:type="star"
       style="fill:#ffffff;fill-opacity:1;stroke:#ffffff;stroke-width:6.844;stroke-linecap:round;stroke-linejoin:round;stroke-opacity:1;paint-order:fill markers stroke"
       id="path19260"
       inkscape:flatsided="true"
       sodipodi:sides="3"
       sodipodi:cx="57.725403"
       sodipodi:cy="114.85056"
       sodipodi:r1="23.511677"
       sodipodi:r2="11.755839"
       sodipodi:arg1="2.0943951"
       sodipodi:arg2="3.1415927"
       inkscape:rounded="0"
       inkscape:randomized="0"
       d="m 45.969564,135.21227 0,-40.723416 35.267516,20.361706 z"
       transform="matrix(0.04716149,0,0,0.04524488,21.349782,13.90271)"
       inkscape:transform-center-x="-0.27721084" />
  </g>
</svg>
