<svg version="1.1" xmlns="http://www.w3.org/2000/svg" xmlns:xlink="http://www.w3.org/1999/xlink" width="82.89932" height="82.888" viewBox="0,0,82.89932,82.888"><g transform="translate(-641.556,-342.556)"><g data-paper-data="{&quot;isPaintingLayer&quot;:true}" fill-rule="nonzero" stroke-linecap="butt" stroke-linejoin="miter" stroke-miterlimit="10" stroke-dasharray="" stroke-dashoffset="0" style="mix-blend-mode: normal"><path d="M709.42117,384.40944c0,13.11701 -12.38139,23.75043 -27.65461,23.75043c-15.27323,0 -27.65462,-10.63343 -27.65462,-23.75043c0,-13.11701 12.38139,-23.75044 27.65462,-23.75044c15.27323,0 27.65461,10.63343 27.65461,23.75044z" fill="#000000" stroke="#000000" stroke-width="15"/><path d="M649.056,384c0,-18.74676 15.19724,-33.944 33.944,-33.944c18.74676,0 33.944,15.19724 33.944,33.944c0,18.74676 -15.19724,33.944 -33.944,33.944c-18.74676,0 -33.944,-15.19725 -33.944,-33.944z" fill="none" stroke="#ffffff" stroke-width="15"/><path d="M716.95533,383.57753c0,18.74676 -15.19724,33.944 -33.944,33.944c-18.74676,0 33.944,-52.69076 33.944,-33.944z" fill="none" stroke="#ababab" stroke-width="15"/><path d="M656.75591,384c0,-14.49421 11.74987,-26.24409 26.24409,-26.24409c14.49421,0 26.24409,11.74987 26.24409,26.24409c0,14.49421 -11.74987,26.24409 -26.24409,26.24409c-14.49421,0 -26.24409,-11.74988 -26.24409,-26.24409z" fill="#000000" stroke="none" stroke-width="0"/></g></g></svg>