<?xml version="1.0" encoding="UTF-8" standalone="no"?>
<!-- Created with Inkscape (http://www.inkscape.org/) -->

<svg
   width="128"
   height="128"
   viewBox="0 0 33.866665 33.866668"
   version="1.1"
   id="svg5"
   inkscape:version="1.1 (c4e8f9ed74, 2021-05-24)"
   sodipodi:docname="folder.svg"
   xmlns:inkscape="http://www.inkscape.org/namespaces/inkscape"
   xmlns:sodipodi="http://sodipodi.sourceforge.net/DTD/sodipodi-0.dtd"
   xmlns="http://www.w3.org/2000/svg"
   xmlns:svg="http://www.w3.org/2000/svg">
  <sodipodi:namedview
     id="namedview7"
     pagecolor="#505050"
     bordercolor="#ffffff"
     borderopacity="1"
     inkscape:pageshadow="0"
     inkscape:pageopacity="0"
     inkscape:pagecheckerboard="1"
     inkscape:document-units="mm"
     showgrid="false"
     units="px"
     inkscape:zoom="2.8284271"
     inkscape:cx="43.31029"
     inkscape:cy="73.362329"
     inkscape:window-width="1366"
     inkscape:window-height="699"
     inkscape:window-x="1024"
     inkscape:window-y="32"
     inkscape:window-maximized="1"
     inkscape:current-layer="layer1" />
  <defs
     id="defs2">
    <filter
       inkscape:collect="always"
       style="color-interpolation-filters:sRGB"
       id="filter13729"
       x="-0.056724792"
       y="-0.088018441"
       width="1.1134496"
       height="1.1760369">
      <feGaussianBlur
         inkscape:collect="always"
         stdDeviation="0.67924614"
         id="feGaussianBlur13731" />
    </filter>
    <filter
       inkscape:collect="always"
       style="color-interpolation-filters:sRGB"
       id="filter13791"
       x="-0.034960977"
       y="-0.06124024"
       width="1.069922"
       height="1.1224805">
      <feGaussianBlur
         inkscape:collect="always"
         stdDeviation="0.47259605"
         id="feGaussianBlur13789" />
    </filter>
  </defs>
  <g
     inkscape:label="Lapis 1"
     inkscape:groupmode="layer"
     id="layer1">
    <g
       id="g14686"
       transform="translate(0.26458361,1.8520855)">
      <path
         id="rect8640"
         style="fill:#e9e262;fill-opacity:1;stroke-width:0.72738;stroke-linecap:round;stroke-linejoin:round;paint-order:fill markers stroke"
         d="M 2.0411677,1.4508667 H 12.677092 c 2.192603,0 3.07181,3.9759516 4.49522,3.9770688 l 13.895393,0.010906 c 2.425119,0 2.070928,2.0385998 2.070928,2.0385998 0,-3.2166144 0.0023,17.0884377 0.0023,17.0884377 0,0.915453 -1.205513,1.499915 -1.943017,1.499915 H 2.0411677 c -0.7375045,0 -1.33123557,-0.593731 -1.33123557,-1.331236 V 2.7821022 c 0,-0.7375045 0.59373107,-1.3312355 1.33123557,-1.3312355 z"
         sodipodi:nodetypes="scscsssssss" />
      <path
         id="path13637"
         style="opacity:0.35;fill:#000000;fill-opacity:1;stroke-width:0.644251;stroke-linecap:round;stroke-linejoin:round;paint-order:fill markers stroke;filter:url(#filter13729)"
         d="M 3.7431312,6.3499316 29.452347,6.6013045 c 2.147962,0 1.83425,1.8056167 1.83425,1.8056167 0,-2.849001 0.002,15.1354708 0.002,15.1354708 0,0.81083 -1.06774,1.328496 -1.720958,1.328496 H 3.7431312 c -0.6532181,0 -1.1790942,-0.525876 -1.1790942,-1.179094 V 7.5290258 c 0,-0.6532182 0.5259073,-1.1854808 1.1790942,-1.1790942 z"
         sodipodi:nodetypes="scsssssss" />
      <path
         id="path12296"
         style="fill:#d5d5d5;fill-opacity:1;stroke-width:0.644251;stroke-linecap:round;stroke-linejoin:round;paint-order:fill markers stroke"
         d="M 3.7431312,6.3499316 29.452347,6.6013045 c 2.147962,0 1.83425,1.8056167 1.83425,1.8056167 0,-2.849001 0.002,15.1354708 0.002,15.1354708 0,0.81083 -1.06774,1.328496 -1.720958,1.328496 H 3.7431312 c -0.6532181,0 -1.1790942,-0.525876 -1.1790942,-1.179094 V 7.5290258 c 0,-0.6532182 0.5259073,-1.1854808 1.1790942,-1.1790942 z"
         sodipodi:nodetypes="scsssssss" />
      <path
         id="path13787"
         style="opacity:0.15;mix-blend-mode:normal;fill:#000000;fill-opacity:1;stroke-width:0.644251;stroke-linecap:round;stroke-linejoin:round;paint-order:fill markers stroke;filter:url(#filter13791)"
         d="M 1.6264644,7.408265 31.039846,7.6596379 c 2.147962,0 1.83425,1.8056167 1.83425,1.8056167 0,-2.849001 0.002,15.1354714 0.002,15.1354714 0,0.81083 -1.06774,1.328496 -1.720958,1.328496 H 1.6264644 c -0.65321807,0 -1.17909414,-0.525876 -1.17909414,-1.179094 V 8.5873592 c 0,-0.6532182 0.5258999,-1.1846765 1.17909414,-1.1790942 z"
         sodipodi:nodetypes="scsssssss" />
      <path
         id="path12910"
         style="fill:#fcfce9;fill-opacity:1;stroke-width:0.72738;stroke-linecap:round;stroke-linejoin:round;paint-order:fill markers stroke"
         d="M 2.0411677,7.8008669 31.067705,8.084675 c 2.425119,0 2.070928,2.0386 2.070928,2.0386 0,-3.2166146 0.0023,17.088439 0.0023,17.088439 0,0.915453 -1.205513,1.499915 -1.943017,1.499915 H 2.0411677 c -0.7375045,0 -1.33123557,-0.593731 -1.33123557,-1.331236 V 9.1321024 c 0,-0.7375045 0.59376637,-1.3384462 1.33123557,-1.3312355 z"
         sodipodi:nodetypes="scsssssss" />
    </g>
  </g>
</svg>
